<?xml version="1.0"?>
<svg version="1.1" xmlns="http://www.w3.org/2000/svg" width="235px" height="96px" style=""><path fill="#ff0000" d="M17.04248046875,60.04833984375q0-3.70849609375,0.333251953125-7.425537109375t1.392822265625-7.322998046875q0.3076171875-1.07666015625,0.80322265625-2.127685546875t1.21337890625-1.871337890625t1.708984375-1.3330078125t2.3583984375-0.5126953125l0.35888671875,0.0341796875q1.4697265625,0.205078125,2.17041015625,1.187744140625t0.70068359375,2.452392578125q0,0.39306640625-0.093994140625,0.982666015625t-0.299072265625,1.136474609375t-0.555419921875,0.931396484375t-0.880126953125,0.384521484375q-0.2392578125-0.0341796875-0.435791015625-0.08544921875t-0.367431640625-0.22216796875q0.2734375-0.59814453125,0.487060546875-1.24755859375t0.213623046875-1.48681640625q0-0.3076171875-0.05126953125-0.7861328125t-0.196533203125-0.948486328125t-0.384521484375-0.8203125t-0.66650390625-0.350341796875q-1.07666015625,0-1.8115234375,1.204833984375t-1.23046875,3.076171875t-0.73486328125,4.1357421875t-0.367431640625,4.375t-0.145263671875,3.81103515625t-0.01708984375,2.401123046875q0,0.8203125-0.01708984375,1.8115234375l0,0.22216796875q0.01708984375,0.87158203125,0.11962890625,1.65771484375q0.13671875,0.888671875,0.52978515625,1.5380859375t1.23046875,0.751953125q0.25634765625,0.0341796875,0.49560546875,0.0341796875q0.9912109375,0,1.79443359375-0.56396484375q0.9912109375-0.70068359375,1.76025390625-1.820068359375t1.3671875-2.4609375t1.102294921875-2.537841796875t0.982666015625-1.982421875t0.9912109375-0.7861328125q0.1708984375,0,0.5126953125,0.068359375t0.341796875,0.32470703125q0,0.068359375-0.0341796875,0.18798828125t-0.08544921875,0.18798828125q-0.46142578125,1.8115234375-1.170654296875,3.759765625t-1.8115234375,3.546142578125t-2.7001953125,2.606201171875t-3.836669921875,1.00830078125q-1.6064453125,0-2.606201171875-0.606689453125t-1.5380859375-1.62353515625t-0.73486328125-2.298583984375t-0.196533203125-2.59765625z M35.254614257812,42.0869140625q0-0.80322265625,0.196533203125-1.170654296875t0.56396484375-0.5126953125t0.888671875-0.111083984375t1.221923828125,0.0341796875q1.77734375,0,3.5888671875,0.546875t3.26416015625,1.597900390625t2.34130859375,2.589111328125t0.888671875,3.53759765625q0,1.3330078125-0.384521484375,2.520751953125t-1.085205078125,2.2216796875t-1.640625,1.888427734375t-2.06787109375,1.48681640625q0.46142578125,0.46142578125,1.1962890625,1.632080078125t1.45263671875,2.4951171875t1.273193359375,2.572021484375t0.657958984375,1.8798828125l-0.205078125,0.3076171875q-0.46142578125,0.2734375-1.11083984375,0.29052734375q-0.3076171875,0-0.80322265625-0.076904296875t-0.63232421875-0.452880859375q-0.70068359375-1.96533203125-1.529541015625-4.05029296875t-2.042236328125-3.759765625l0-0.0341796875q-0.42724609375,0.1708984375-0.845947265625,0.333251953125t-0.845947265625,0.299072265625q0.13671875,1.89697265625,0.281982421875,3.734130859375t0.145263671875,3.717041015625q0,0.2392578125-0.230712890625,0.384521484375t-0.521240234375,0.230712890625t-0.589599609375,0.11962890625t-0.487060546875,0.0341796875q-0.1708984375,0-0.487060546875-0.0341796875t-0.606689453125-0.11962890625t-0.504150390625-0.247802734375t-0.213623046875-0.435791015625q0-1.89697265625-0.08544921875-3.785400390625t-0.18798828125-3.768310546875q-0.52978515625-0.341796875-0.52978515625-0.888671875q0-0.42724609375,0.41015625-0.5810546875q-0.205078125-3.60595703125-0.469970703125-7.19482421875t-0.264892578125-7.22900390625z M38.347875976562,41.55712890625q0.2392578125,3.70849609375,0.538330078125,7.33154296875t0.572509765625,7.33154296875q1.1962890625-0.341796875,2.230224609375-1.187744140625t1.785888671875-1.905517578125t1.170654296875-2.30712890625t0.418701171875-2.47802734375q0-1.3671875-0.546875-2.623291015625t-1.45263671875-2.196044921875q-0.9228515625-0.93994140625-2.119140625-1.4697265625q-1.0595703125-0.46142578125-2.2216796875-0.46142578125l-0.3076171875,0z M51.706494140625,53.41748046875q0-1.00830078125,0.111083984375-2.44384765625t0.41015625-2.99072265625t0.80322265625-3.09326171875t1.290283203125-2.71728515625t1.8798828125-1.86279296875q0.90576171875-0.56396484375,2.0849609375-0.56396484375q0.2392578125,0,0.49560546875,0.0341796875q2.9736328125,0.2734375,4.571533203125,1.358642578125t2.332763671875,2.75146484375t0.8544921875,3.7939453125t0.11962890625,4.486083984375q0,1.89697265625-0.350341796875,4.127197265625t-1.239013671875,4.161376953125t-2.452392578125,3.221435546875t-3.973388671875,1.290283203125q-1.4697265625,0-2.572021484375-0.538330078125t-1.871337890625-1.435546875t-1.2646484375-2.0849609375t-0.751953125-2.4609375t-0.367431640625-2.572021484375t-0.111083984375-2.4609375z M55.175732421875,52.6484375q0,0.73486328125,0.01708984375,1.802978515625t0.145263671875,2.247314453125t0.333251953125,2.349853515625t0.606689453125,2.127685546875t1.016845703125,1.572265625t1.48681640625,0.6494140625l0.08544921875,0q0.7861328125,0,1.4013671875-0.59814453125q0.6494140625-0.63232421875,1.153564453125-1.52099609375t0.87158203125-1.871337890625t0.657958984375-1.683349609375l-0.068359375,0.15380859375q0.49560546875-1.572265625,0.66650390625-3.221435546875t0.1708984375-3.255615234375q0-0.76904296875-0.1025390625-1.854248046875t-0.333251953125-2.264404296875t-0.59814453125-2.332763671875t-0.931396484375-2.008056640625t-1.31591796875-1.298828125q-0.546875-0.32470703125-1.21337890625-0.341796875q-0.25634765625,0-0.5126953125,0.05126953125q-0.87158203125,0.1708984375-1.48681640625,0.8544921875t-0.999755859375,1.683349609375t-0.589599609375,2.1875t-0.316162109375,2.392578125t-0.128173828125,2.30712890625t-0.01708984375,1.871337890625z M62.883251953125,57.912109375l0-0.0341796875l0,0.0341796875z M70.192065429687,39.64306640625q0-0.341796875,0.52978515625-0.487060546875t0.87158203125-0.145263671875q0.39306640625,0,0.863037109375,0.1025390625t0.572509765625,0.52978515625q0.49560546875,1.99951171875,0.760498046875,4.075927734375t0.401611328125,4.178466796875t0.22216796875,4.178466796875t0.18798828125,4.110107421875q0.46142578125-2.03369140625,0.948486328125-4.041748046875t1.273193359375-4.007568359375l0-1.3671875q0-0.87158203125,0.606689453125-1.256103515625t1.632080078125-0.384521484375q0.1025390625,0,0.469970703125,0.05126953125t0.367431640625,0.341796875q-0.068359375,0.205078125-0.162353515625,0.39306640625t-0.093994140625,0.41015625q0,2.59765625,0.615234375,5.323486328125t1.21337890625,5.306396484375q0.341796875-2.20458984375,0.7861328125-4.39208984375t0.9228515625-4.35791015625q0.63232421875-2.9052734375,0.965576171875-4.827880859375t0.63232421875-3.0419921875t0.6494140625-1.58935546875t0.982666015625-0.469970703125q0.39306640625-0.0341796875,0.73486328125,0.13671875t0.2734375,0.56396484375q-1.23046875,5.947265625-2.298583984375,11.9287109375t-2.178955078125,11.962890625q0,0.341796875,0.11962890625,0.80322265625t0.11962890625,0.8203125q0,0.205078125-0.18798828125,0.341796875t-0.452880859375,0.230712890625t-0.5810546875,0.128173828125t-0.555419921875,0.0341796875q-0.52978515625,0-1.11083984375-0.162353515625t-0.751953125-0.931396484375q-0.59814453125-2.666015625-1.102294921875-5.357666015625t-0.931396484375-5.426025390625q-0.13671875,0.63232421875-0.25634765625,1.28173828125t-0.22216796875,1.31591796875q-0.49560546875,2.9052734375-1.09375,5.810546875t-0.59814453125,5.87890625q0,0.73486328125-0.3076171875,0.948486328125t-1.04248046875,0.213623046875q-0.56396484375,0-0.95703125-0.18798828125q-0.3076171875-0.1708984375-0.5810546875-0.3076171875q-0.2392578125-0.13671875-0.435791015625-0.316162109375t-0.196533203125-0.350341796875q-0.2734375-3.70849609375-0.384521484375-7.36572265625t-0.247802734375-7.36572265625q-0.13671875-3.33251953125-0.401611328125-6.656494140625t-0.589599609375-6.605224609375z M90.9505859375,41.72802734375q0-1.1962890625,0.41015625-1.6064453125t1.14501953125-0.41015625q0.205078125,0,0.435791015625,0.0341796875t0.435791015625,0.1025390625q1.14501953125-0.22216796875,2.17041015625-0.22216796875q1.65771484375,0,3.0078125,0.5810546875q2.17041015625,0.9228515625,3.5888671875,2.734375t2.0849609375,4.25537109375t0.66650390625,5.00732421875q0,1.435546875-0.196533203125,2.99072265625t-0.760498046875,2.88818359375q-0.49560546875,1.1962890625-1.3671875,2.503662109375t-1.973876953125,2.47802734375t-2.37548828125,2.05078125t-2.572021484375,1.187744140625l0,0.13671875q0,0.341796875-0.179443359375,0.555419921875t-0.435791015625,0.32470703125t-0.589599609375,0.145263671875t-0.623779296875,0.0341796875q-0.1708984375,0-0.487060546875-0.0341796875t-0.615234375-0.128173828125t-0.504150390625-0.247802734375t-0.205078125-0.42724609375q0-3.1103515625-0.162353515625-6.229248046875t-0.367431640625-6.23779296875t-0.367431640625-6.229248046875t-0.162353515625-6.23779296875z M94.18056640625,40.8564453125q0.1708984375,1.640625,0.22216796875,3.272705078125t0.15380859375,3.272705078125q0.2734375,4.23828125,0.63232421875,8.433837890625t0.42724609375,8.433837890625q1.640625-1.07666015625,2.811279296875-2.4609375t1.922607421875-3.0078125t1.102294921875-3.409423828125t0.350341796875-3.682861328125q0-1.3671875-0.2392578125-3.0078125t-0.8203125-3.16162109375t-1.563720703125-2.75146484375t-2.452392578125-1.76025390625q-0.3076171875-0.1025390625-0.743408203125-0.1708984375t-1.392822265625-0.068359375q-0.1025390625,0-0.205078125,0.0341796875t-0.205078125,0.0341796875z M108.41076660156,62.62890625q0.1025390625-2.7685546875,0.179443359375-5.673828125t0.145263671875-5.733642578125t0.1025390625-5.494384765625t0.0341796875-4.97314453125q0.0341796875-0.46142578125,0.80322265625-0.73486328125t1.837158203125-0.401611328125t2.255859375-0.162353515625t2.110595703125-0.0341796875q0.205078125,0,0.8544921875-0.01708984375l0.32470703125,0q0.49560546875,0,1.04248046875,0.0341796875q0.7177734375,0.05126953125,1.256103515625,0.22216796875t0.538330078125,0.49560546875q0,0.2392578125-0.18798828125,0.384521484375t-0.435791015625,0.213623046875t-0.5126953125,0.08544921875t-0.367431640625,0.01708984375q-1.6064453125,0-3.1787109375-0.05126953125q-0.42724609375-0.01708984375-0.87158203125-0.01708984375q-1.162109375,0-2.3583984375,0.1025390625q0.068359375,0.205078125,0.111083984375,1.239013671875t0.042724609375,2.332763671875t-0.01708984375,2.537841796875t0,1.905517578125l0,4.443359375q0.52978515625-0.0341796875,1.04248046875-0.0341796875l1.025390625,0l0.68359375-0.0341796875q0.341796875-0.01708984375,0.7177734375-0.01708984375q0.39306640625,0,0.80322265625,0.01708984375q0.8203125,0.0341796875,1.495361328125,0.196533203125t0.675048828125,0.572509765625q0,0.3076171875-0.25634765625,0.452880859375t-0.572509765625,0.213623046875t-0.59814453125,0.068359375l-0.316162109375,0q-0.97412109375,0-2.025146484375-0.068359375t-1.956787109375-0.068359375q-0.1708984375,0.068359375-0.367431640625,0.05126953125t-0.350341796875-0.01708984375q0,2.5634765625-0.05126953125,5.101318359375t-0.11962890625,5.050048828125q0,0.49560546875-0.623779296875,0.6494140625t-1.187744140625,0.15380859375q-0.63232421875,0-0.999755859375-0.15380859375t-0.521240234375-0.504150390625t-0.18798828125-0.931396484375q-0.01708984375-0.32470703125-0.0341796875-0.7177734375q0-0.32470703125,0.01708984375-0.70068359375z M122.36752929688,49.96533203125l0-1.31591796875l0-1.35009765625q0.01708984375-1.3671875,0.111083984375-2.623291015625t0.264892578125-2.093505859375q0.1025390625-0.46142578125,0.615234375-0.56396484375t0.888671875-0.1025390625q0.70068359375,0,1.033935546875,0.1708984375t0.435791015625,0.487060546875t0.08544921875,0.751953125t-0.01708984375,0.999755859375q0,0.80322265625-0.0341796875,2.23876953125t-0.05126953125,3.1787109375l0,0.87158203125q0,1.31591796875,0.0341796875,2.71728515625q0.05126953125,1.8798828125,0.196533203125,3.597412109375t0.401611328125,3.09326171875t0.7177734375,2.110595703125q0.73486328125-0.66650390625,1.4697265625-1.871337890625t1.4013671875-2.708740234375t1.273193359375-3.170166015625t1.102294921875-3.255615234375t0.845947265625-2.99072265625t0.521240234375-2.37548828125q0.2734375-1.4013671875,0.367431640625-2.85400390625t0.093994140625-3.22998046875q0.52978515625-0.63232421875,0.8203125-0.794677734375t0.9228515625-0.162353515625q0.3076171875,0,0.623779296875,0.05126953125t0.606689453125,0.2392578125l0.2392578125,0.3759765625l0,0.42724609375q0,3.1103515625-0.299072265625,6.314697265625t-0.63232421875,6.44287109375t-0.63232421875,6.494140625t-0.299072265625,6.468505859375q0,0.49560546875,0.042724609375,1.051025390625t0.179443359375,1.051025390625l-0.068359375,0.205078125q-0.2392578125,0.39306640625-0.7861328125,0.49560546875t-0.93994140625,0.1025390625q-0.83740234375,0-1.256103515625-0.247802734375t-0.555419921875-0.68359375t-0.11962890625-1.00830078125t0.01708984375-1.239013671875q0-2.30712890625,0.205078125-4.691162109375t0.49560546875-4.691162109375q-0.2734375,0.80322265625-0.6494140625,1.939697265625t-0.880126953125,2.27294921875t-1.170654296875,2.0849609375t-1.4697265625,1.358642578125l0.0341796875-0.0341796875l-0.13671875,0.068359375l0.0341796875,0q-0.49560546875,0.2734375-0.914306640625,0.367431640625t-0.982666015625,0.093994140625q-1.1279296875,0-1.871337890625-0.66650390625t-1.204833984375-1.717529296875t-0.68359375-2.3583984375t-0.316162109375-2.623291015625t-0.093994140625-2.503662109375l0-1.956787109375q0-0.93994140625-0.01708984375-2.23876953125z M128.45151367188,63.56884765625q0.0341796875,0,0.0341796875-0.0341796875l0.0341796875,0q-0.0341796875,0.0341796875-0.068359375,0.0341796875z M140.83601074219,43.12939453125q0-0.205078125,0.196533203125-0.3076171875t0.42724609375-0.15380859375t0.418701171875-0.05126953125l0.18798828125,0q0.59814453125,0,0.863037109375,0.2734375t0.640869140625,0.70068359375q2.5634765625,3.70849609375,4.69970703125,7.630615234375t4.11865234375,7.938232421875q0.1708984375-4.6826171875,0.350341796875-9.425048828125t0.452880859375-9.407958984375q0-0.205078125,0.196533203125-0.341796875t0.4443359375-0.205078125t0.504150390625-0.08544921875t0.39306640625-0.01708984375q0.205078125,0,0.452880859375,0.01708984375t0.49560546875,0.1025390625t0.41015625,0.205078125t0.162353515625,0.32470703125q0.068359375,0.73486328125,0.076904296875,1.478271484375t0.008544921875,1.478271484375q0,5.5029296875-0.2392578125,10.78369140625t-0.2392578125,10.6640625l0,1.23046875q0,0.068359375-0.068359375,0.205078125q0.0341796875,0.13671875,0.1025390625,0.299072265625t0.068359375,0.230712890625q0,0.2734375-0.281982421875,0.41015625t-0.615234375,0.213623046875t-0.589599609375,0.076904296875t-0.18798828125,0q-0.87158203125,0-1.4697265625-0.478515625t-0.59814453125-1.14501953125q-1.2646484375-2.8369140625-2.520751953125-5.631103515625t-2.623291015625-5.562744140625q-0.87158203125-1.7431640625-1.751708984375-3.494873046875t-1.888427734375-3.392333984375q0.0341796875,0.0341796875,0.0341796875,0.1025390625q0.1708984375,1.708984375,0.367431640625,3.409423828125t0.299072265625,3.409423828125q0.068359375,1.4697265625,0.15380859375,2.9736328125t0.2734375,2.9736328125q0,0.56396484375-0.350341796875,0.7177734375t-0.811767578125,0.15380859375q-0.39306640625,0-0.743408203125-0.1025390625t-0.418701171875-0.5126953125q0-1.572265625-0.11962890625-3.341064453125t-0.22216796875-3.563232421875q-0.1708984375-2.37548828125-0.452880859375-4.827880859375t-0.281982421875-4.793701171875q0-0.1025390625,0.01708984375-0.213623046875t0.01708984375-0.247802734375q-0.1025390625-0.1708984375-0.230712890625-0.35888671875t-0.128173828125-0.341796875z M159.8171875,41.72802734375q0-1.1962890625,0.41015625-1.6064453125t1.14501953125-0.41015625q0.205078125,0,0.435791015625,0.0341796875t0.435791015625,0.1025390625q1.14501953125-0.22216796875,2.17041015625-0.22216796875q1.65771484375,0,3.0078125,0.5810546875q2.17041015625,0.9228515625,3.5888671875,2.734375t2.0849609375,4.25537109375t0.66650390625,5.00732421875q0,1.435546875-0.196533203125,2.99072265625t-0.760498046875,2.88818359375q-0.49560546875,1.1962890625-1.3671875,2.503662109375t-1.973876953125,2.47802734375t-2.37548828125,2.05078125t-2.572021484375,1.187744140625l0,0.13671875q0,0.341796875-0.179443359375,0.555419921875t-0.435791015625,0.32470703125t-0.589599609375,0.145263671875t-0.623779296875,0.0341796875q-0.1708984375,0-0.487060546875-0.0341796875t-0.615234375-0.128173828125t-0.504150390625-0.247802734375t-0.205078125-0.42724609375q0-3.1103515625-0.162353515625-6.229248046875t-0.367431640625-6.23779296875t-0.367431640625-6.229248046875t-0.162353515625-6.23779296875z M163.04716796875,40.8564453125q0.1708984375,1.640625,0.22216796875,3.272705078125t0.15380859375,3.272705078125q0.2734375,4.23828125,0.63232421875,8.433837890625t0.42724609375,8.433837890625q1.640625-1.07666015625,2.811279296875-2.4609375t1.922607421875-3.0078125t1.102294921875-3.409423828125t0.350341796875-3.682861328125q0-1.3671875-0.2392578125-3.0078125t-0.8203125-3.16162109375t-1.563720703125-2.75146484375t-2.452392578125-1.76025390625q-0.3076171875-0.1025390625-0.743408203125-0.1708984375t-1.392822265625-0.068359375q-0.1025390625,0-0.205078125,0.0341796875t-0.205078125,0.0341796875z M177.24318847656,65.2607421875q0.068359375-3.57177734375,0.299072265625-7.12646484375t0.401611328125-7.12646484375q0.0341796875-1.3671875,0.0341796875-2.486572265625t0.111083984375-1.939697265625t0.41015625-1.256103515625t0.999755859375-0.435791015625q0.59814453125,0,0.90576171875,0.1708984375t0.469970703125,0.435791015625t0.196533203125,0.59814453125t0.0341796875,0.675048828125q0,0.49560546875,0.0341796875,0.982666015625t0.0341796875,0.982666015625q0,3.60595703125-0.196533203125,7.19482421875t-0.196533203125,7.22900390625q0,0.52978515625,0.01708984375,1.068115234375t0.01708984375,1.102294921875q0,0.205078125-0.18798828125,0.341796875t-0.469970703125,0.230712890625t-0.59814453125,0.128173828125t-0.521240234375,0.0341796875q-0.2392578125,0-0.538330078125-0.0341796875t-0.5810546875-0.145263671875t-0.478515625-0.264892578125t-0.196533203125-0.35888671875z M178.20021972656,42.0869140625q0-0.1708984375,0.05126953125-0.384521484375t0.11962890625-0.384521484375q0.0341796875-0.205078125,0.1025390625-0.70068359375t0.247802734375-0.965576171875t0.49560546875-0.83740234375t0.897216796875-0.367431640625l0.32470703125,0q0.2734375,0.068359375,0.555419921875,0.1708984375t0.281982421875,0.49560546875q0,0.1708984375-0.01708984375,0.32470703125t-0.05126953125,0.341796875q-0.13671875,1.00830078125-0.264892578125,1.58935546875t-0.299072265625,0.880126953125t-0.435791015625,0.384521484375t-0.675048828125,0.11962890625q-0.13671875,0-0.367431640625-0.01708984375t-0.4443359375-0.08544921875t-0.367431640625-0.213623046875t-0.15380859375-0.350341796875z M184.77416992188,43.12939453125q0-0.205078125,0.196533203125-0.3076171875t0.42724609375-0.15380859375t0.418701171875-0.05126953125l0.18798828125,0q0.59814453125,0,0.863037109375,0.2734375t0.640869140625,0.70068359375q2.5634765625,3.70849609375,4.69970703125,7.630615234375t4.11865234375,7.938232421875q0.1708984375-4.6826171875,0.350341796875-9.425048828125t0.452880859375-9.407958984375q0-0.205078125,0.196533203125-0.341796875t0.4443359375-0.205078125t0.504150390625-0.08544921875t0.39306640625-0.01708984375q0.205078125,0,0.452880859375,0.01708984375t0.49560546875,0.1025390625t0.41015625,0.205078125t0.162353515625,0.32470703125q0.068359375,0.73486328125,0.076904296875,1.478271484375t0.008544921875,1.478271484375q0,5.5029296875-0.2392578125,10.78369140625t-0.2392578125,10.6640625l0,1.23046875q0,0.068359375-0.068359375,0.205078125q0.0341796875,0.13671875,0.1025390625,0.299072265625t0.068359375,0.230712890625q0,0.2734375-0.281982421875,0.41015625t-0.615234375,0.213623046875t-0.589599609375,0.076904296875t-0.18798828125,0q-0.87158203125,0-1.4697265625-0.478515625t-0.59814453125-1.14501953125q-1.2646484375-2.8369140625-2.520751953125-5.631103515625t-2.623291015625-5.562744140625q-0.87158203125-1.7431640625-1.751708984375-3.494873046875t-1.888427734375-3.392333984375q0.0341796875,0.0341796875,0.0341796875,0.1025390625q0.1708984375,1.708984375,0.367431640625,3.409423828125t0.299072265625,3.409423828125q0.068359375,1.4697265625,0.15380859375,2.9736328125t0.2734375,2.9736328125q0,0.56396484375-0.350341796875,0.7177734375t-0.811767578125,0.15380859375q-0.39306640625,0-0.743408203125-0.1025390625t-0.418701171875-0.5126953125q0-1.572265625-0.11962890625-3.341064453125t-0.22216796875-3.563232421875q-0.1708984375-2.37548828125-0.452880859375-4.827880859375t-0.281982421875-4.793701171875q0-0.1025390625,0.01708984375-0.213623046875t0.01708984375-0.247802734375q-0.1025390625-0.1708984375-0.230712890625-0.35888671875t-0.128173828125-0.341796875z M203.78952636719,50.939453125q0-1.1279296875,0.093994140625-2.469482421875t0.333251953125-2.691650390625t0.7177734375-2.606201171875t1.23046875-2.23876953125t1.837158203125-1.563720703125t2.589111328125-0.5810546875q1.1962890625,0,2.20458984375,0.46142578125t1.76025390625,1.24755859375t1.170654296875,1.837158203125t0.418701171875,2.196044921875q0,0.3076171875-0.418701171875,0.384521484375t-0.589599609375,0.076904296875q-0.3076171875,0-0.589599609375-0.05126953125t-0.418701171875-0.41015625q-0.2392578125-0.66650390625-0.504150390625-1.4013671875t-0.6494140625-1.341552734375t-0.948486328125-0.999755859375q-0.5126953125-0.341796875-1.298828125-0.341796875l-0.13671875,0q-1.435546875,0.0341796875-2.13623046875,1.025390625t-0.965576171875,2.40966796875t-0.264892578125,3.0078125l0,2.81982421875q0,0.70068359375,0.05126953125,2.03369140625t0.247802734375,2.9052734375t0.5126953125,3.204345703125t0.8544921875,2.9736328125t1.290283203125,2.1875t1.8115234375,0.845947265625q0.93994140625,0,1.640625-0.6494140625t1.204833984375-1.666259765625t0.8544921875-2.27294921875t0.5810546875-2.520751953125t0.350341796875-2.349853515625t0.18798828125-1.785888671875q-0.18798828125-0.01708984375-0.35888671875-0.01708984375q-0.80322265625,0-1.572265625,0.25634765625q-0.97412109375,0.29052734375-1.9482421875,0.29052734375q-0.13671875,0-0.367431640625-0.01708984375t-0.435791015625-0.08544921875t-0.367431640625-0.196533203125t-0.162353515625-0.333251953125q0-0.39306640625,0.863037109375-0.66650390625t1.96533203125-0.469970703125t2.127685546875-0.281982421875t1.35009765625-0.08544921875q0.1708984375,0,0.487060546875,0.0341796875t0.63232421875,0.11962890625t0.538330078125,0.247802734375t0.22216796875,0.401611328125q0,0.205078125-0.15380859375,0.367431640625t-0.384521484375,0.247802734375t-0.469970703125,0.11962890625t-0.3759765625,0.0341796875q0.01708984375,0.39306640625,0.01708984375,0.80322265625q0,0.9228515625-0.05126953125,1.96533203125q-0.08544921875,1.50390625-0.341796875,3.0078125t-0.7861328125,2.92236328125t-1.35009765625,2.503662109375t-2.025146484375,1.751708984375t-2.862548828125,0.66650390625q-1.8115234375,0-3.05908203125-0.76904296875t-2.03369140625-2.05078125t-1.221923828125-2.9052734375t-0.623779296875-3.323974609375t-0.230712890625-3.306884765625t-0.042724609375-2.9052734375z"/><path fill="#" d=""/></svg>
