<svg xmlns="http://www.w3.org/2000/svg" xmlns:xlink="http://www.w3.org/1999/xlink" width="207px" height="200px" viewBox="0 0 207 200" version="1.1">
    <g id="Explore-v3---Crowdfunding-&amp;-Marketplace" stroke="none" stroke-width="1" fill="none" fill-rule="evenodd">
        <g id="Empty-State_8_25" transform="translate(-735.000000, -440.000000)">
            <g id="Group-4" transform="translate(569.000000, 440.000000)">
                <g id="Page-1" transform="translate(166.000000, 0.000000)">
                    <g id="Group-36" transform="translate(0.000000, 0.601667)">
                        <path d="M111.177083,5.49941667 C61.31375,5.49941667 20.7470833,46.0660833 20.7470833,95.9294167 C20.7470833,145.79275 61.31375,186.359417 111.177083,186.359417 C161.040417,186.359417 201.607083,145.79275 201.607083,95.9294167 C201.607083,46.0660833 161.040417,5.49941667 111.177083,5.49941667 M111.177083,191.626917 C58.4095833,191.626917 15.4795833,148.69775 15.4795833,95.9294167 C15.4795833,43.1619167 58.4095833,0.231916667 111.177083,0.231916667 C163.944583,0.231916667 206.874583,43.1619167 206.874583,95.9294167 C206.874583,148.69775 163.944583,191.626917 111.177083,191.626917" id="Fill-2" fill="#F2F2F2"/>
                        <path d="M111.177083,22.2946667 C70.5745833,22.2946667 37.5420833,55.3271667 37.5420833,95.9296667 C37.5420833,136.532167 70.5745833,169.564667 111.177083,169.564667 C151.779583,169.564667 184.812083,136.532167 184.812083,95.9296667 C184.812083,55.3271667 151.779583,22.2946667 111.177083,22.2946667 M111.177083,174.832167 C67.6704167,174.832167 32.2745833,139.436333 32.2745833,95.9296667 C32.2745833,52.423 67.6704167,17.0271667 111.177083,17.0271667 C154.68375,17.0271667 190.079583,52.423 190.079583,95.9296667 C190.079583,139.436333 154.68375,174.832167 111.177083,174.832167" id="Fill-4" fill="#F2F2F2"/>
                        <path d="M109.541333,39.654 C77.6088333,39.654 51.6296667,65.6331667 51.6296667,97.5656667 C51.6296667,129.497333 77.6088333,155.4765 109.541333,155.4765 C141.473833,155.4765 167.453,129.497333 167.453,97.5656667 C167.453,65.6331667 141.473833,39.654 109.541333,39.654 M109.541333,160.744 C74.7046667,160.744 46.3621667,132.402333 46.3621667,97.5656667 C46.3621667,62.7281667 74.7046667,34.3865 109.541333,34.3865 C144.378,34.3865 172.7205,62.7281667 172.7205,97.5656667 C172.7205,132.402333 144.378,160.744 109.541333,160.744" id="Fill-6" fill="#F2F2F2"/>
                        <path d="M144.54375,30.4591667 C144.54375,32.0816667 143.22875,33.3966667 141.60625,33.3966667 C139.98375,33.3966667 138.66875,32.0816667 138.66875,30.4591667 C138.66875,28.8366667 139.98375,27.5216667 141.60625,27.5216667 C143.22875,27.5216667 144.54375,28.8366667 144.54375,30.4591667" id="Fill-8" fill="#F4AE33"/>
                        <path d="M202.586833,110.06275 C202.586833,111.981917 201.031,113.53775 199.111833,113.53775 C197.192667,113.53775 195.636833,111.981917 195.636833,110.06275 C195.636833,108.143583 197.192667,106.58775 199.111833,106.58775 C201.031,106.58775 202.586833,108.143583 202.586833,110.06275" id="Fill-10" fill="#F4AE33"/>
                        <path d="M23.07725,42.8650833 C23.07725,43.6734167 22.42225,44.3284167 21.6139167,44.3284167 C20.8055833,44.3284167 20.1505833,43.6734167 20.1505833,42.8650833 C20.1505833,42.05675 20.8055833,41.40175 21.6139167,41.40175 C22.42225,41.40175 23.07725,42.05675 23.07725,42.8650833" id="Fill-12" fill="#F4AE33"/>
                        <path d="M157.667,82.0978333 C157.667,82.9061667 157.012,83.5611667 156.203667,83.5611667 C155.395333,83.5611667 154.740333,82.9061667 154.740333,82.0978333 C154.740333,81.2895 155.395333,80.6345 156.203667,80.6345 C157.012,80.6345 157.667,81.2895 157.667,82.0978333" id="Fill-14" fill="#F4AE33"/>
                        <path d="M58.492,139.217917 C58.492,137.832083 59.6145,136.709583 60.9995,136.709583 C62.3845,136.709583 63.5078333,137.832083 63.5078333,139.217917 C63.5078333,140.602917 62.3845,141.725417 60.9995,141.725417 C59.6145,141.725417 58.492,140.602917 58.492,139.217917 M29.3086667,199.109583 L35.882,199.162917 C36.1753333,199.165417 36.4478333,199.009583 36.5945,198.75625 L57.3278333,163.03375 L57.3278333,198.664583 C57.3278333,198.94125 57.5528333,199.16625 57.8295,199.16625 L64.1695,199.16625 C64.447,199.16625 64.672,198.94125 64.672,198.664583 L64.672,163.107917 L85.3303333,198.75625 C85.477,199.00875 85.7478333,199.16375 86.0395,199.162917 L92.6253333,199.134583 C93.2528333,199.13125 93.642,198.452083 93.3278333,197.90875 L67.1195,152.682083 L74.3703333,152.682083 C74.6478333,152.682083 74.8728333,152.457917 74.8728333,152.180417 L74.8728333,146.65625 C74.8728333,146.37875 74.6478333,146.154583 74.3703333,146.154583 L66.0161667,146.154583 C68.1653333,144.597083 69.5686667,142.074583 69.5686667,139.217917 C69.5686667,134.485417 65.732,130.64875 60.9995,130.64875 C56.2678333,130.64875 52.4311667,134.485417 52.4311667,139.217917 C52.4311667,142.074583 53.8345,144.597083 55.9836667,146.154583 L47.6286667,146.154583 C47.352,146.154583 47.127,146.37875 47.127,146.65625 L47.127,152.180417 C47.127,152.457917 47.352,152.682083 47.6286667,152.682083 L54.8436667,152.682083 L28.6095,197.88375 C28.2945,198.425417 28.6828333,199.104583 29.3086667,199.109583" id="Fill-16" fill="#A8A8A8"/>
                        <path d="M95.1005833,84.8836667 L111.170583,80.6645 C111.653917,80.5378333 112.148917,80.8261667 112.275583,81.3103333 L119.603083,109.2195 L120.28475,111.8145 C120.411417,112.297833 120.12225,112.792833 119.638917,112.9195 L103.56975,117.1395 C103.085583,117.266167 102.590583,116.977 102.463917,116.493667 L101.26225,111.917 L94.45475,85.9886667 C94.3280833,85.5053333 94.61725,85.0111667 95.1005833,84.8836667" id="Fill-18" fill="#C8C8C8"/>
                        <path d="M1.55916667,122.564167 L3.40916667,122.078333 C4.37583333,121.824167 5.36583333,122.4025 5.61916667,123.369167 L6.80666667,127.8925 C7.06083333,128.86 6.48333333,129.849167 5.51583333,130.103333 L3.66583333,130.589167 C2.69916667,130.843333 1.70916667,130.265 1.455,129.2975 L0.2675,124.775 C0.0141666667,123.8075 0.5925,122.8175 1.55916667,122.564167" id="Fill-20" fill="#A8A8A8"/>
                        <path d="M9.47333333,119.712667 L22.3583333,115.006833 L37.3941667,109.515167 L36.8483333,107.440167 C36.6533333,106.695167 37.1675,105.899333 38.0283333,105.6135 L89.4616667,88.5351667 C90.4191667,88.2176667 91.4216667,88.6526667 91.6391667,89.481 L97.6491667,112.3735 L98.3058333,114.872667 C98.5233333,115.700167 97.8641667,116.571833 96.8741667,116.765167 L43.685,127.156833 C42.795,127.331 41.9558333,126.890167 41.76,126.146 L41.25,124.202667 L11.9216667,129.036833 C10.9491667,129.196833 10.0783333,128.7785 9.88916667,128.061 L8.1825,121.561 C7.99416667,120.8435 8.5475,120.051 9.47333333,119.712667" id="Fill-22" fill="#C8C8C8"/>
                        <path d="M102.463917,116.493417 L101.26225,111.917583 L94.45475,85.98925 C94.3280833,85.5050833 94.61725,85.0109167 95.1005833,84.8834167 L111.16975,80.6650833 C111.653917,80.5375833 112.148917,80.82675 112.275583,81.3100833 L119.603083,109.21925 L120.28475,111.81425 C120.411417,112.297583 120.12225,112.792583 119.638917,112.920083 L103.568917,117.13925 C103.085583,117.265917 102.590583,116.97675 102.463917,116.493417" id="Fill-24" fill="#C8C8C8"/>
                        <path d="M89.4615,88.5355833 C90.419,88.2180833 91.4215,88.6530833 91.639,89.4805833 L97.649,112.373917 L98.3056667,114.87225 C98.5231667,115.700583 97.8631667,116.57225 96.874,116.765583 L88.2481667,118.450583 L59.3573333,98.5314167 L89.4615,88.5355833 Z" id="Fill-26" fill="#C8C8C8"/>
                        <path d="M41.76,126.145833 L41.25,124.2025 L11.9208333,129.036667 C10.9491667,129.196667 10.0775,128.778333 9.88916667,128.060833 L8.1825,121.560833 C7.99416667,120.843333 8.5475,120.050833 9.47333333,119.7125 L22.3583333,115.006667 L37.3941667,109.515 L36.8483333,107.44 C36.6533333,106.695 37.1675,105.899167 38.0283333,105.613333 L59.3566667,98.5316667 L88.2475,118.450833 L43.685,127.156667 C42.795,127.330833 41.9558333,126.89 41.76,126.145833" id="Fill-28" fill="#A8A8A8"/>
                        <path d="M74.8724167,146.65625 L74.8724167,152.180417 C74.8724167,152.457917 74.64825,152.682083 74.37075,152.682083 L67.1199167,152.682083 L93.3274167,197.90875 C93.6424167,198.45125 93.2524167,199.13125 92.6249167,199.134583 L86.0399167,199.162917 C85.7474167,199.16375 85.4765833,199.00875 85.3299167,198.75625 L64.6724167,163.107917 L64.6724167,198.664583 C64.6724167,198.942083 64.4474167,199.167083 64.1699167,199.167083 L57.8299167,199.167083 C57.5524167,199.167083 57.3274167,198.942083 57.3274167,198.664583 L57.3274167,163.03375 L36.5949167,198.75625 C36.4474167,199.009583 36.17575,199.165417 35.8824167,199.162917 L29.3090833,199.109583 C28.6824167,199.104583 28.2949167,198.42625 28.6090833,197.88375 L47.1365833,165.96125 L70.8890833,146.154583 L74.37075,146.154583 C74.64825,146.154583 74.8724167,146.37875 74.8724167,146.65625" id="Fill-30" fill="#929292"/>
                        <polygon id="Fill-32" fill="#F4AE33" points="76.2628333 67.112 69.627 65.9945 73.9128333 60.8061667"/>
                        <polygon id="Fill-34" fill="#F4AE33" points="197.407583 14.2646667 193.800917 10.3413333 199.00175 9.17883333"/>
                    </g>
                </g>
            </g>
        </g>
    </g>
</svg>
